:SAMPLES-PER-SECOND 30
:FULLY-SPECIFIED
:DEGREES
399
root  -11.6164 40.8464 -6.58947 -160.824 -87.131 160.029
RightUpLeg  -6.66692 -12.0085 -12.7852
RightLeg  3.89209 -5.1861 2.9787
RightFoot  10.9294 -1.02622 5.6003
RightToes  0.00048216 0.542163 -0.142577
Spine  3.04461 1.05976 4.68498
Spine1  15.6569 2.54624 -4.19328
HEad  -22.8033 -4.09373 1.39131
LeftShoulder1  10.9674 -15.4738 -50.4547
LeftArm  1.20595 1.81222 -25.4065
LeftForeArm  26.305 -11.9654 -7.04838
LeftHand  -0.25398 0.0180481 5.50724
RightShoulder  7.28685 12.0971 40.5351
RightArm  -5.05411 9.83531 35.6711
RightForeArm  44.5537 1.62952 5.54094
RightHand  -0.39082 -10.4631 7.32295
LeftUpLeg  -4.12829 7.27913 0.495759
LeftLeg  7.45874 12.9578 -4.3181
LeftFoot  -1.08492 -0.530731 5.98189
LeftToes  1.06246e-005 4.65855e-005 -8.18503e-006
400
root  -11.0758 40.8545 -6.22248 -174.069 -86.1726 174.194
RightUpLeg  -8.38978 -11.9044 -11.9754
RightLeg  4.01873 -6.35732 3.21721
RightFoot  10.5971 -1.11583 6.13178
RightToes  0.00048216 0.542163 -0.142577
Spine  4.36894 0.855131 4.4658
Spine1  14.7612 2.14614 -3.60511
HEad  -24.6007 -2.15911 1.55034
LeftShoulder1  11.2474 -16.1224 -50.0351
LeftArm  -2.52575 -0.342858 -25.5752
LeftForeArm  36.2756 -2.47852 -8.73967
LeftHand  -0.25398 0.0180481 5.50724
RightShoulder  7.23639 12.0893 40.2512
RightArm  -5.33732 9.90228 36.4194
RightForeArm  48.5044 3.63513 5.18614
RightHand  -0.613203 -11.6542 9.52133
LeftUpLeg  -5.75885 7.01496 0.7164
LeftLeg  6.9822 14.4656 -4.79755
LeftFoot  -0.174294 -0.651029 6.6637
LeftToes  1.06246e-005 4.65855e-005 -8.18503e-006
401
root  -10.5376 40.8862 -5.92052 176.376 -85.687 -175.896
RightUpLeg  -9.56263 -13.0464 -10.7695
RightLeg  6.88088 -6.38275 2.86109
RightFoot  7.47407 -0.950382 6.03113
RightToes  0.00048216 0.542163 -0.142577
Spine  5.70134 0.281499 3.86561
Spine1  14.2043 1.2045 -2.52205
HEad  -25.9675 -0.00486055 1.66138
LeftShoulder1  11.2532 -16.4485 -49.2412
LeftArm  -1.34079 -1.1226 -26.2206
LeftForeArm  45.7257 0.727439 -8.6129
LeftHand  -0.25398 0.0180481 5.50724
RightShoulder  7.25422 12.1376 40.2228
RightArm  -3.69451 9.42354 36.7003
RightForeArm  42.9362 6.83986 5.99739
RightHand  -0.315518 -9.76187 5.77608
LeftUpLeg  -6.67001 6.85393 1.11218
LeftLeg  6.20586 15.1171 -5.24861
LeftFoot  0.970149 -0.780796 7.17299
LeftToes  1.06246e-005 4.65855e-005 -8.18503e-006
402
root  -10.0106 40.9185 -5.69386 167.972 -85.5683 -167.601
RightUpLeg  -10.2629 -16.7029 -8.95317
RightLeg  12.2897 -3.66546 1.22164
RightFoot  4.04335 -0.736152 5.65354
RightToes  0.00048216 0.542163 -0.142577
Spine  6.76723 -0.333739 3.23277
Spine1  14.1441 0.191956 -1.39605
HEad  -27.0052 1.61899 1.35172
LeftShoulder1  11.0742 -16.4217 -48.5199
LeftArm  0.123002 -1.13067 -26.6747
LeftForeArm  55.1546 -0.693311 -8.88511
LeftHand  -0.25398 0.0180481 5.50724
RightShoulder  7.39061 12.3375 40.4831
RightArm  0.330181 8.31243 36.3586
RightForeArm  30.9294 11.093 6.82285
RightHand  -0.0437049 -5.75824 -0.0975493
LeftUpLeg  -7.10203 6.87375 1.54834
LeftLeg  5.48609 15.0983 -5.64036
LeftFoot  2.17588 -0.938928 7.79683
LeftToes  1.06246e-005 4.65855e-005 -8.18503e-006
403
root  -9.49909 40.9275 -5.53587 163.14 -85.5145 -163.071
RightUpLeg  -10.6318 -18.6807 -7.61462
RightLeg  19.2376 -1.99462 -1.15284
RightFoot  2.10734 -0.635991 5.5157
RightToes  0.00048216 0.542163 -0.142577
Spine  7.36168 -0.594206 2.79271
Spine1  14.2607 -0.337309 -0.657416
HEad  -27.537 2.0534 0.683811
LeftShoulder1  10.9014 -16.2264 -48.2339
LeftArm  1.8347 -0.759831 -26.6687
LeftForeArm  60.1623 -4.20342 -9.26823
LeftHand  -0.25398 0.0180481 5.50724
RightShoulder  7.43445 12.3781 40.631
RightArm  7.46596 6.17644 36.1155
RightForeArm  15.8405 16.9535 6.00037
RightHand  -0.152167 -1.88226 -4.8102
LeftUpLeg  -7.34715 6.92796 1.84621
LeftLeg  4.87844 14.9965 -6.0479
LeftFoot  3.39059 -1.08343 8.20966
LeftToes  1.06246e-005 4.65855e-005 -8.18503e-006
404
root  -8.99169 40.9162 -5.43111 164.144 -85.4418 -164.364
RightUpLeg  -10.5728 -14.5318 -7.96216
RightLeg  27.0248 -5.15935 -3.08114
RightFoot  1.16976 -0.604383 5.58054
RightToes  0.00048216 0.542163 -0.142577
Spine  7.46427 -0.49313 2.51845
Spine1  14.2638 -0.331957 -0.39379
HEad  -27.3225 1.28984 0.0240609
LeftShoulder1  10.804 -16.0067 -48.3431
LeftArm  3.41675 0.017604 -26.0844
LeftForeArm  59.1271 -7.92081 -9.09409
LeftHand  -0.25398 0.0180481 5.50724
RightShoulder  7.29434 12.1187 40.5188
RightArm  11.2205 3.35193 36.2882
RightForeArm  6.71114 22.9846 4.7037
RightHand  -0.38403 0.345191 -7.92325
LeftUpLeg  -7.44102 6.91833 1.86788
LeftLeg  3.99291 14.9658 -6.62537
LeftFoot  4.72378 -1.16924 8.07064
LeftToes  1.06246e-005 4.65855e-005 -8.18503e-006
405
root  -8.47474 40.8959 -5.37019 168.278 -85.5817 -168.778
RightUpLeg  -10.2194 -11.4129 -8.34959
RightLeg  34.4689 -6.34435 -4.90067
RightFoot  0.320416 -0.549439 5.39455
RightToes  0.00048216 0.542163 -0.142577
Spine  7.18571 -0.406166 2.44138
Spine1  14.2774 -0.178828 -0.573724
HEad  -26.6004 -0.404047 -0.471798
LeftShoulder1  10.711 -15.7677 -48.5233
LeftArm  5.18817 1.18793 -25.0705
LeftForeArm  51.9035 -11.604 -8.03783
LeftHand  -0.25398 0.0180481 5.50724
RightShoulder  7.10745 11.7706 40.3699
RightArm  8.55194 0.849144 36.7591
RightForeArm  8.23118 27.5454 5.4647
RightHand  -0.498546 0.741303 -9.57248
LeftUpLeg  -7.39976 6.7842 1.60991
LeftLeg  2.74985 14.8253 -7.26223
LeftFoot  6.17622 -1.2604 7.91883
LeftToes  1.06246e-005 4.65855e-005 -8.18503e-006
406
root  -7.93122 40.8615 -5.3494 171.705 -86.0841 -172.586
RightUpLeg  -9.07092 -9.47595 -8.59965
RightLeg  40.2908 -6.64179 -6.27253
RightFoot  -0.328912 -0.503364 5.19457
RightToes  0.00048216 0.542163 -0.142577
Spine  6.71297 -0.537552 2.65468
Spine1  14.5159 -0.12672 -1.08161
HEad  -25.9759 -2.86742 -0.907362
LeftShoulder1  10.5918 -15.5263 -48.5928
LeftArm  6.5549 2.50075 -24.0699
LeftForeArm  40.0969 -15.4202 -6.35403
LeftHand  -0.25398 0.0180481 5.50724
RightShoulder  6.97228 11.5289 40.2275
RightArm  6.83994 -0.69327 37.5823
RightForeArm  11.7986 30.282 5.9526
RightHand  -0.473721 0.132968 -9.98653
LeftUpLeg  -7.40411 6.48562 1.2454
LeftLeg  1.61738 14.6299 -7.66987
LeftFoot  7.63307 -1.43202 8.27212
LeftToes  1.06246e-005 4.65855e-005 -8.18503e-006
407
root  -7.33588 40.7931 -5.36933 173.997 -86.682 -175.403
RightUpLeg  -7.21494 -8.24552 -8.62608
RightLeg  44.1103 -6.55367 -7.05389
RightFoot  -0.794461 -0.535424 5.74062
RightToes  0.00048216 0.542163 -0.142577
Spine  6.25542 -0.678373 2.9711
Spine1  14.8344 -0.0815323 -1.59706
HEad  -25.6871 -5.85461 -1.27475
LeftShoulder1  10.501 -15.3489 -48.6302
LeftArm  5.96545 3.80234 -23.5468
LeftForeArm  27.2481 -19.4747 -4.58174
LeftHand  -0.25398 0.0180481 5.50724
RightShoulder  6.85233 11.3897 39.8756
RightArm  6.83104 -1.18737 38.5017
RightForeArm  14.4058 30.8128 5.9373
RightHand  -0.422266 -0.338379 -9.67606
LeftUpLeg  -7.61673 6.19807 0.978847
LeftLeg  1.01188 14.4617 -7.80675
LeftFoot  8.97956 -1.59 8.55168
LeftToes  1.06246e-005 4.65855e-005 -8.18503e-006
408
root  -6.67231 40.6795 -5.43267 177.052 -87.0266 -179.077
RightUpLeg  -5.00004 -6.98138 -8.44566
RightLeg  46.0286 -5.58547 -6.47983
RightFoot  -1.56664 -0.609541 7.0023
RightToes  0.00048216 0.542163 -0.142577
Spine  5.88948 -0.637452 3.1415
Spine1  14.9402 0.0769692 -1.89697
HEad  -25.3709 -8.86517 -1.3689
LeftShoulder1  10.4383 -15.2222 -48.6675
LeftArm  1.0155 5.04204 -23.5011
LeftForeArm  19.9884 -23.9265 -4.00492
LeftHand  -0.25398 0.0180481 5.50724
RightShoulder  6.75467 11.3357 39.4095
RightArm  8.49062 -0.847986 39.296
RightForeArm  14.9167 29.2996 5.5459
RightHand  -0.388039 -0.397502 -8.98673
LeftUpLeg  -8.04658 6.08263 0.87077
LeftLeg  0.917675 14.2488 -7.88021
LeftFoot  10.0905 -1.64228 8.33623
LeftToes  1.06246e-005 4.65855e-005 -8.18503e-006
409
root  -5.93658 40.5119 -5.54483 -176.984 -87.1411 174.314
RightUpLeg  -2.64135 -5.48161 -8.14027
RightLeg  46.0431 -3.28587 -3.97903
RightFoot  -2.32465 -0.682197 8.42687
RightToes  0.00048216 0.542163 -0.142577
Spine  5.52183 -0.492066 3.12948
Spine1  14.9046 0.339368 -2.26194
HEad  -24.6318 -11.4164 -1.08194
LeftShoulder1  10.3217 -15.063 -48.5351
LeftArm  -6.51773 5.96025 -23.7577
LeftForeArm  20.7398 -28.7676 -5.08655
LeftHand  -0.25398 0.0180481 5.50724
RightShoulder  6.74061 11.3671 39.2274
RightArm  11.2021 0.119599 39.8756
RightForeArm  14.1561 26.4237 4.8994
RightHand  -0.334762 -0.551685 -7.959
LeftUpLeg  -8.78089 6.1117 0.728204
LeftLeg  1.33808 14.0646 -7.87474
LeftFoot  10.8989 -1.72181 8.40093
LeftToes  1.06246e-005 4.65855e-005 -8.18503e-006
